<svg width="547" height="74" viewBox="0 0 547 74" fill="none" xmlns="http://www.w3.org/2000/svg">
<path d="M1.44005 60.096C1.72805 59.616 1.92005 56.736 1.72805 56.544H1.53605C1.44005 57.216 1.24805 57.6 1.24805 57.12C1.24805 56.448 0.960047 57.6 0.864047 58.752C0.768047 59.52 0.672047 60.192 0.672047 60.288C0.576047 60.48 0.672047 60.576 0.768047 60.576C0.864047 60.576 0.960047 60.576 0.960047 60.48C0.960047 60.384 0.960047 60.288 1.05605 60.384C1.15205 60.48 1.34405 60.288 1.44005 60.096ZM18.048 61.152L18.24 60.672L17.952 61.056C17.664 61.44 17.568 61.728 17.76 61.728C17.856 61.728 17.952 61.44 18.048 61.152ZM19.584 58.176C19.872 57.6 20.832 55.68 20.832 55.104C20.736 55.104 20.64 55.296 20.448 55.68C20.352 55.968 20.064 56.736 19.776 57.216C19.296 58.368 19.296 58.56 19.584 58.176ZM21.408 56.928C21.504 56.544 21.504 56.544 21.312 56.832C21.12 56.928 21.024 57.216 21.024 57.312C21.024 57.696 21.312 57.408 21.408 56.928ZM25.152 47.712C25.536 46.752 25.536 46.368 25.152 47.136C24.768 47.904 24.672 48.288 24.768 48.288C24.864 48.288 24.96 48.096 25.152 47.712ZM61.056 11.232C61.152 11.04 61.248 10.848 61.248 10.656C61.248 10.56 61.152 10.56 61.056 10.848C60.768 11.328 60.768 11.616 61.056 11.232ZM26.112 49.056C26.208 48.864 26.208 48.864 26.208 49.152C26.208 49.344 26.208 49.632 26.112 49.728C26.016 49.92 25.92 49.92 25.92 49.632C25.92 49.44 26.016 49.152 26.112 49.056ZM27.072 46.848C27.168 46.848 27.168 46.848 27.072 47.232C26.976 47.52 26.688 47.424 26.784 47.136C26.88 46.944 26.976 46.848 27.072 46.848ZM28.224 42.336C28.512 41.472 28.992 40.32 29.088 40.416C29.184 40.416 29.088 40.704 28.992 40.992C28.8 41.184 28.608 41.76 28.608 42.24C28.512 42.72 28.32 43.2 28.224 43.296C27.936 43.488 27.936 43.488 28.032 43.2C28.032 43.104 28.128 42.72 28.224 42.336ZM68.3521 5.27999C68.5441 5.18399 68.736 4.89599 68.9281 4.60799L69.216 4.22399L69.12 4.60799C69.12 4.79999 69.024 5.47199 68.9281 6.04799C68.9281 6.81599 68.736 7.48799 68.256 8.44799C67.9681 9.21599 67.68 9.88799 67.68 9.98399C67.68 10.08 67.5841 10.176 67.4881 10.176C67.296 10.176 66.528 11.52 66.528 11.808C66.528 11.808 66.3361 12.384 65.952 13.056C65.088 15.072 64.9921 15.36 63.9361 17.76C63.456 19.008 63.0721 20.064 63.0721 20.16C63.0721 20.352 63.1681 20.256 63.264 20.064C63.36 19.872 63.456 19.68 63.5521 19.68V19.968C62.784 21.408 62.016 23.04 62.016 23.328C61.92 23.616 61.8241 23.808 61.8241 23.904C61.7281 24 61.632 24.48 61.632 24.864C61.536 25.728 61.248 26.4 61.056 26.208C61.056 26.208 61.056 26.016 61.152 25.92C61.248 25.728 61.3441 25.632 61.248 25.632C60.9601 25.632 59.328 30.048 58.7521 32.256C58.08 34.464 56.8321 38.016 55.2001 42.048C54.528 43.584 53.7601 45.216 53.2801 46.752C51.264 51.264 49.248 56.16 47.616 60.96C46.656 63.744 45.2161 66.912 44.64 67.296C44.448 67.392 43.968 67.872 43.488 68.256C43.104 68.64 42.528 69.024 42.3361 69.12C42.048 69.12 41.6641 69.312 41.472 69.408C40.512 69.984 39.84 70.08 38.112 70.08C35.136 70.08 34.368 69.504 32.544 67.008C31.104 64.896 30.432 62.4 30.24 57.792C30.24 56.928 30.144 55.872 30.048 55.584C29.952 54.912 30.048 43.872 30.048 42.816C30.336 39.936 30.432 37.44 30.336 37.248C30.24 36.96 29.664 38.112 29.664 38.496C29.664 38.688 29.568 38.976 29.472 39.264C29.376 39.456 29.28 39.552 29.28 39.552V39.36C29.376 39.168 29.28 38.976 29.184 38.976C29.088 38.976 29.088 39.072 29.088 39.168C29.088 39.168 28.8 39.84 28.512 40.416C28.224 41.088 28.032 41.664 28.032 41.856C28.032 41.952 27.936 42.048 27.84 42.048C27.648 42.048 27.264 43.104 27.264 43.584C27.264 44.16 26.88 45.12 26.784 45.024C26.688 45.024 26.592 45.216 26.592 45.504C26.592 45.984 26.592 46.08 26.4 45.888C26.304 45.792 26.304 45.6 26.4 45.12C26.688 44.256 26.496 44.16 26.304 44.928C26.208 45.216 26.016 45.6 25.92 45.792C25.632 46.176 25.632 46.752 25.824 46.56C26.016 46.464 26.016 46.656 25.92 47.04C25.824 47.52 25.92 47.616 26.112 47.424C26.4 47.232 26.4 47.424 25.92 48.576C25.728 49.248 25.632 49.728 25.632 50.016L25.728 50.496L25.44 50.112C25.248 49.824 25.248 49.728 25.344 49.44C25.632 48.864 25.824 48.096 25.632 48.096C25.536 48.096 25.536 47.904 25.536 47.616C25.632 47.328 25.632 47.04 25.536 47.04C25.344 47.04 24.96 48.288 24.96 48.96C24.96 49.248 24.768 49.824 24.672 50.208C24.48 50.784 24.384 50.976 24.576 51.072C24.768 51.168 24.672 51.36 23.904 52.992C23.616 53.664 23.328 54.336 23.328 54.528C23.328 54.816 23.04 55.68 22.848 55.68C22.848 55.68 22.848 55.392 22.944 55.008C23.04 54.624 23.136 54.336 23.04 54.336C23.04 54.336 22.944 54.528 22.848 54.624C22.848 54.816 22.656 55.2 22.56 55.584C22.272 56.16 22.176 56.64 22.176 57.024C22.176 57.024 22.08 57.12 21.984 57.024C21.888 57.024 21.6 57.312 21.408 57.792C21.216 58.272 21.024 58.656 20.928 58.752C20.832 58.752 20.736 59.04 20.64 59.232C20.544 59.712 19.68 61.152 19.68 60.864C19.68 60.768 19.584 60.864 19.488 61.152C19.392 61.344 19.296 61.44 19.2 61.344C19.2 61.152 19.872 59.616 20.256 59.136C20.544 58.848 20.832 57.888 20.64 57.888C20.544 57.888 20.544 57.984 20.544 58.08C20.544 58.272 20.448 58.272 20.352 58.08C20.256 57.984 20.256 57.984 20.16 58.272C20.064 58.464 19.968 58.752 19.968 58.848C19.968 59.04 19.872 59.232 19.776 59.328C19.584 59.52 19.584 59.424 19.68 58.944V58.368C19.488 58.368 19.296 59.136 19.2 59.712C19.2 60.384 18.336 62.304 18.144 62.304C18.048 62.208 17.952 62.112 17.856 62.208C17.76 62.208 17.856 62.112 18.048 61.92C18.432 61.44 19.008 60.096 18.624 60.384C18.432 60.48 18.336 60.672 18.336 60.768C18.336 61.056 17.472 62.304 17.28 62.304C17.184 62.304 17.088 62.496 16.992 62.784C16.992 63.648 16.704 63.744 16.608 62.976L16.512 62.304L16.224 62.784C15.84 63.36 15.84 63.552 16.128 63.264C16.32 63.072 16.32 63.072 16.128 63.552C15.936 63.84 15.552 64.512 15.36 64.992C14.112 67.104 13.824 67.584 13.728 67.68C13.632 67.68 13.536 67.872 13.536 67.968C13.536 68.544 11.52 71.52 10.944 71.712C10.752 71.712 10.368 72 10.08 72.288C9.31205 72.96 9.21605 72.96 8.35205 73.056C7.96805 73.056 7.48805 73.152 7.39205 73.248C7.20005 73.44 4.99205 73.44 4.22405 73.152C3.36005 72.864 2.30405 71.712 1.82405 70.56C1.34405 69.696 0.768047 67.68 0.576047 66.816C0.480047 66.624 0.480047 66.24 0.384047 66.048C0.288047 65.28 0.0960469 61.92 0.192047 61.92C0.384047 61.824 0.480047 60.768 0.576047 57.984C0.576047 55.2 1.05605 52.224 1.53605 49.44C1.82405 47.328 1.92005 47.04 2.01605 46.08C2.30405 44.256 2.40005 43.584 2.68805 42.72C2.78405 42.336 2.88005 41.76 2.97605 41.472C2.97605 41.184 3.16805 40.416 3.26405 39.84C3.55205 38.4 3.74405 36.768 3.84005 35.232C3.93605 34.56 3.93605 33.792 4.03205 33.6C4.12805 32.544 4.22405 31.968 4.32005 31.584C4.32005 31.392 4.41605 30.912 4.51205 30.528C4.60805 29.664 4.60805 29.76 4.70405 29.184C4.80005 28.992 4.89605 28.608 4.89605 28.416C5.18405 27.072 6.14405 22.848 6.24005 22.464C6.33605 22.176 6.43205 21.792 6.43205 21.6C6.43205 21.408 6.72005 20.256 7.00805 19.008C8.06405 14.976 8.35205 13.824 8.54405 11.52C8.64005 10.08 8.64005 9.31199 8.54405 8.73599C8.25605 7.48799 8.54405 6.33599 9.31205 5.27999C9.60005 4.89599 9.88805 4.41599 9.88805 4.41599C9.88805 4.12799 10.656 3.45599 11.424 3.07199C11.904 2.87999 12.96 2.78399 14.016 2.78399C14.976 2.78399 15.936 2.87999 16.608 3.07199C20.064 4.03199 21.12 5.27999 20.832 8.35199C20.64 10.656 20.64 11.232 20.448 11.616C20.352 11.808 20.352 12 20.352 12.096C20.256 12.48 20.064 13.536 19.872 14.304C19.776 14.88 19.584 15.456 19.584 15.744C19.488 16.032 19.296 17.088 19.008 18.144C18.816 19.2 18.624 20.16 18.528 20.352C18.528 20.544 18.336 21.6 18.048 22.56C17.856 23.616 17.472 25.152 17.28 26.016C17.088 26.88 16.896 27.936 16.8 28.224C16.704 28.608 16.608 29.088 16.512 29.376C16.512 29.664 16.32 30.336 16.224 30.816C16.032 31.488 15.936 32.16 15.744 33.504C15.744 33.696 15.648 33.984 15.648 34.272C15.264 36.096 14.976 37.632 14.976 37.824C14.976 38.016 14.88 38.304 14.88 38.592C14.784 38.88 14.688 39.744 14.496 40.512C14.304 42.144 14.208 42.24 13.92 43.872C13.728 44.544 13.632 45.312 13.536 45.6C13.536 45.888 13.44 46.368 13.44 46.656C13.344 46.944 13.344 47.232 13.248 47.328C13.248 47.52 13.152 48 13.152 48.576C13.056 49.152 12.96 49.728 12.96 49.824C12.96 50.016 12.864 50.304 12.864 50.592C12.768 50.88 12.672 51.456 12.576 51.744C12.48 52.128 12.384 52.8 12.384 53.184C12.288 53.664 12.192 54.144 12.192 54.336C12 55.392 12 55.872 12.096 55.872C12.192 55.872 12.288 55.68 12.384 55.584C12.48 55.392 13.152 54.336 13.824 53.184C15.552 50.112 16.8 47.904 17.76 45.792C19.104 43.104 20.448 40.224 20.928 39.264C21.12 38.784 22.176 36.672 23.232 34.56C24.288 32.352 25.44 29.952 25.824 29.088C26.208 28.224 26.976 26.592 27.552 25.536C28.032 24.384 28.8 22.848 29.184 21.984C29.568 21.216 30.048 20.16 30.336 19.776C30.72 19.008 30.816 19.008 30.72 17.088C30.72 14.976 31.008 13.44 33.696 13.44C34.176 13.44 34.656 13.344 35.04 13.152C35.52 12.96 35.616 12.864 35.904 13.056C36 13.152 36.096 13.344 36.096 13.44C36.096 13.536 36.288 13.632 36.768 13.632C39.456 13.632 42.432 15.36 43.296 18.048C43.584 18.912 43.584 22.656 43.296 23.424C43.2 23.712 43.104 24.48 43.104 25.056C43.008 25.632 43.008 26.4 42.912 26.688C42.912 27.072 42.816 27.648 42.816 28.128C42.528 29.376 42.3361 31.104 42.3361 32.448C42.24 32.928 42.144 33.6 42.144 33.888C42.048 34.176 42.048 34.656 41.952 34.944C41.952 35.232 41.856 35.712 41.856 36C41.76 36.288 41.6641 36.864 41.6641 37.344C41.6641 37.824 41.568 38.88 41.472 39.648C40.9921 43.68 40.704 51.744 40.9921 51.744C41.088 51.648 41.76 50.208 42.528 48.48C43.296 46.848 44.352 44.448 44.928 43.296C45.504 42.144 45.984 41.088 45.984 40.896C45.984 40.704 48.48 35.328 48.864 34.656C48.96 34.464 49.536 33.216 50.016 31.968C50.592 30.624 51.0721 29.472 51.1681 29.376C51.264 29.28 51.264 29.376 51.1681 29.568V29.952C51.36 29.952 52.0321 28.416 52.8 26.688C53.568 24.864 53.664 24.48 53.8561 24.576C53.952 24.672 55.008 22.656 55.008 22.176C55.1041 21.696 55.68 20.256 55.9681 19.872C56.0641 19.68 56.16 19.68 56.0641 19.776C56.0641 19.872 56.0641 19.968 56.16 19.968C56.256 19.968 56.5441 19.296 56.736 18.432C57.024 17.568 57.4081 16.608 57.6 16.416C57.7921 16.128 58.1761 15.456 58.464 14.88C58.848 14.4 59.1361 13.824 59.232 13.632C59.5201 13.248 60.192 11.904 60.672 10.752C60.9601 10.176 61.248 9.69599 61.3441 9.69599C61.536 9.69599 63.0721 6.52799 64.704 3.07199C65.088 2.30399 65.472 1.63199 65.664 1.43999L66.528 0.575989C67.0081 0.0959892 67.1041 0.0959892 68.0641 -9.53674e-06C69.024 -9.53674e-06 69.024 -9.53674e-06 69.024 0.383991C69.024 0.863991 68.9281 1.24799 68.64 1.24799C68.4481 1.24799 68.4481 1.24799 68.64 0.95999C68.8321 0.575989 68.8321 0.47999 68.64 0.47999C68.3521 0.47999 68.3521 0.863991 68.4481 1.82399C68.5441 2.68799 68.4481 2.97599 68.256 3.45599C67.872 4.31999 67.9681 4.60799 68.3521 3.74399C68.64 3.35999 68.736 2.87999 68.736 2.68799C68.64 2.20799 68.8321 2.01599 68.9281 2.49599C69.024 2.78399 68.9281 3.26399 68.5441 3.93599C68.3521 4.51199 68.0641 5.08799 68.0641 5.27999C68.0641 5.56799 68.0641 5.56799 68.3521 5.27999ZM64.4161 18.816C64.5121 18.624 64.608 18.528 64.608 18.528C64.704 18.624 63.9361 20.64 63.744 20.928C63.6481 21.024 63.5521 21.024 63.5521 20.928C63.5521 20.928 63.744 20.448 63.9361 20.064C64.128 19.584 64.32 19.104 64.4161 18.816ZM65.8561 14.208C65.952 14.208 65.952 14.4 65.8561 14.688C65.2801 16.032 64.8961 16.8 64.608 17.568C64.4161 17.952 64.224 18.432 64.224 18.528C64.224 18.72 63.84 19.392 63.744 19.392C63.6481 19.488 63.744 19.008 63.9361 18.528C64.5121 17.184 65.184 15.552 65.472 15.072C65.664 14.784 65.7601 14.496 65.7601 14.4C65.7601 14.304 65.7601 14.208 65.8561 14.208ZM65.184 16.896C65.3761 16.512 65.568 16.224 65.568 16.416C65.184 17.568 65.088 17.952 64.9921 17.952C64.8961 17.952 64.8001 17.856 64.8001 17.76C64.8001 17.76 64.9921 17.28 65.184 16.896ZM68.8321 7.77599C69.12 7.58399 69.12 7.67999 68.9281 8.06399C68.8321 8.25599 68.64 8.73599 68.4481 9.21599C68.16 9.69599 68.0641 9.88799 68.0641 9.88799C68.0641 9.79199 68.16 9.40799 68.3521 9.11999C68.3521 8.92799 68.736 7.87199 68.8321 7.77599ZM62.6881 21.12C62.88 21.12 62.976 21.024 62.976 20.928C62.976 20.832 62.88 20.832 62.784 20.928C62.6881 20.928 62.6881 21.024 62.6881 21.12ZM19.008 59.04C19.104 59.04 19.2 58.944 19.2 58.848C19.2 58.656 19.104 58.56 19.104 58.56C19.104 58.56 19.008 58.656 19.008 58.848C18.912 58.944 19.008 59.04 19.008 59.04ZM4.68493e-05 60.96C4.68493e-05 61.248 4.68493e-05 61.344 0.0960469 61.152C0.0960469 61.056 0.0960469 60.768 0.0960469 60.672C0.0960469 60.48 4.68493e-05 60.672 4.68493e-05 60.96ZM15.168 66.24C15.168 66.336 15.264 66.432 15.264 66.432C15.36 66.336 15.36 66.24 15.264 66.144C15.264 66.048 15.168 66.048 15.168 66.24ZM17.472 63.168C17.376 63.168 17.376 63.264 17.376 63.36C17.376 63.648 17.472 63.552 17.568 63.264C17.568 63.168 17.568 63.072 17.472 63.168ZM27.072 46.272C27.072 46.08 27.072 45.984 26.976 45.984C26.88 45.984 26.88 46.08 26.88 46.272C26.88 46.368 26.88 46.464 26.88 46.464C26.976 46.464 26.976 46.368 27.072 46.272ZM62.976 22.08C62.88 22.08 62.88 22.176 62.88 22.272C62.976 22.368 63.0721 22.56 63.0721 22.56C63.0721 22.56 63.0721 22.464 63.0721 22.272C63.0721 22.176 63.0721 22.08 62.976 22.08ZM7.87205 6.23999C7.87205 6.33599 7.87205 6.43199 7.96805 6.33599C8.06405 6.14399 8.06405 6.04799 8.06405 6.04799C8.06405 6.04799 7.96805 6.14399 7.87205 6.23999ZM94.9328 10.944C98.4848 11.04 98.7728 10.944 98.5808 11.232C98.4848 11.328 98.3888 11.616 98.4848 11.712C98.4848 11.808 98.2928 11.904 97.9088 12C97.6208 12 97.1408 12.192 96.8528 12.48C96.6608 12.672 96.1808 12.864 95.8928 12.96C95.5088 13.152 95.3168 13.248 95.3168 13.44C95.3168 13.728 95.1248 13.824 94.6448 13.92C94.2608 14.016 93.9728 14.208 93.9728 14.304C93.9728 14.4 94.4528 14.304 95.2208 14.112C95.4128 14.016 95.6048 14.016 95.6048 14.112C95.6048 14.112 95.3168 14.304 94.9328 14.4C94.2608 14.592 93.9728 15.072 94.3568 15.36C94.5488 15.456 94.5488 15.456 94.1648 15.552C93.5888 15.648 92.8208 16.032 92.4368 16.32C92.2448 16.416 91.8608 16.608 91.4768 16.8C91.0928 16.992 90.3248 17.472 89.4608 17.952C87.8288 18.816 86.5808 19.488 84.9488 20.064C83.8928 20.448 82.3568 21.408 82.1648 21.792C82.0688 21.984 81.5888 23.136 81.0128 24.384C80.4368 25.728 79.7648 27.264 79.4768 27.84C79.1888 28.416 78.9968 28.896 78.9968 28.896C79.0928 28.992 80.0528 28.8 81.3008 28.416C83.2208 27.84 88.7888 26.784 89.9408 26.688C90.6128 26.688 92.2448 26.784 93.6848 26.784C96.2768 26.976 96.2768 26.976 95.9888 27.264C95.8928 27.36 95.7968 27.552 95.7968 27.648C95.7968 27.648 95.5088 27.84 95.2208 27.936C94.5488 28.128 93.5888 28.704 93.6848 28.8C93.7808 28.896 93.3008 29.472 93.1088 29.472C92.8208 29.472 92.8208 29.76 93.2048 29.856C93.3008 29.856 93.1088 30.048 92.6288 30.24C92.1488 30.432 91.9568 30.624 91.5728 31.008C91.3808 31.008 91.2848 31.104 91.2848 31.296C91.3808 31.488 91.2848 31.584 90.9968 31.68C90.6128 31.776 90.6128 31.776 90.8048 31.872C91.0928 31.968 91.0928 31.968 90.8048 32.16C90.4208 32.256 88.8848 33.312 88.8848 33.408C88.8848 33.504 86.9648 34.848 86.7728 34.944C86.6768 35.136 86.3888 35.328 86.1968 35.424C86.1008 35.424 85.8128 35.616 85.5248 35.808C85.3328 35.904 84.8528 36.192 84.6608 36.384C84.3728 36.576 84.1808 36.768 84.1808 36.864C84.1808 36.96 83.8928 37.152 83.7008 37.344C83.4128 37.44 82.7408 37.824 82.2608 38.208C79.7648 39.936 76.7888 41.184 73.7168 41.184H72.2768L71.9888 41.952C71.0288 44.064 69.6848 47.52 68.9168 49.92C68.4368 51.648 68.4368 51.744 68.7248 51.936C69.0128 52.032 69.6848 52.128 70.5488 52.128C74.3888 52.128 78.3248 50.976 81.8768 49.824C83.9888 49.056 86.1968 48.384 86.7728 48.192C89.5568 47.424 90.4208 47.04 92.2448 46.08C93.3008 45.504 94.2608 45.024 94.3568 45.024C94.6448 45.024 94.5488 45.312 94.1648 45.6C93.8768 45.792 93.6848 46.176 93.4928 46.368C93.3968 46.56 93.0128 46.848 92.7248 47.04C92.4368 47.136 92.2448 47.52 92.1488 47.808C92.0528 48 91.5728 48.672 90.9968 49.248C90.5168 49.728 90.1328 50.208 90.2288 50.208C90.4208 50.208 90.4208 50.4 90.3248 50.592C90.3248 50.88 90.3248 50.976 90.4208 50.976C90.5168 50.976 90.5168 51.168 90.2288 51.456C90.0368 51.744 89.8448 52.128 89.8448 52.32C89.8448 52.512 89.6528 52.896 88.8848 53.472C88.4048 53.856 87.7328 54.336 87.4448 54.624C87.2528 54.72 86.7728 55.104 86.4848 55.296C86.1968 55.488 86.0048 55.776 86.0048 55.776C86.0048 55.872 85.7168 56.064 85.4288 56.256C85.0448 56.448 84.5648 56.832 84.1808 57.12C83.7968 57.408 82.5488 58.08 81.3968 58.56C78.7088 59.904 76.5008 60.576 73.4288 61.056C71.9888 61.152 69.0128 61.248 68.9168 61.056C68.8208 61.056 68.2448 60.96 67.5728 60.96C65.0768 60.768 63.3488 60.096 61.5248 58.752C58.1648 56.256 57.3968 53.28 58.6448 47.52C59.5088 43.872 61.4288 38.976 65.8448 30.048C66.8048 28.128 67.4768 26.688 67.4768 26.688C67.4768 26.592 67.9568 25.824 68.3408 24.864C68.8208 23.904 69.3968 22.56 69.6848 21.888L70.1648 20.736L69.6848 19.968C69.3968 19.488 69.1088 19.104 69.1088 19.008C69.1088 18.912 69.0128 18.816 68.9168 18.72C68.7248 18.624 68.7248 18.336 68.7248 18.048C68.8208 17.856 68.7248 17.472 68.6288 17.184C68.3408 16.8 68.3408 15.648 68.5328 15.36C68.6288 15.264 68.6288 15.168 68.5328 15.168C68.1488 15.072 69.7808 14.688 70.3568 14.688C71.2208 14.688 72.6608 14.4 72.8528 14.304C72.8528 14.208 73.1408 13.728 73.3328 13.152C73.6208 12.672 73.9088 11.904 74.1008 11.52C74.1968 11.232 74.3888 10.848 74.3888 10.848C74.3888 10.752 74.5808 10.368 74.7728 9.88799C75.3488 8.63999 75.9248 8.44799 77.6528 8.44799C79.6688 8.35199 80.4368 8.83199 81.3968 10.848C81.6848 11.52 81.9728 12 82.0688 12.096C82.0688 12.096 83.0288 12 84.1808 11.808C89.3648 10.944 90.7088 10.752 94.9328 10.944ZM89.9408 17.184C89.8448 17.184 89.7488 17.184 89.7488 17.088C89.7488 16.992 89.8448 16.896 89.9408 16.896C90.0368 16.896 90.0368 16.992 90.0368 17.088C90.0368 17.184 90.0368 17.184 89.9408 17.184ZM89.6528 50.496C89.6528 50.304 89.6528 50.208 89.7488 50.208C89.7488 50.208 89.7488 50.304 89.7488 50.4C89.7488 50.496 89.6528 50.592 89.6528 50.496ZM100.202 53.28C103.178 52.704 105.482 52.032 108.842 50.88C114.89 48.672 122.282 44.736 123.626 42.816L123.914 42.432L123.53 41.952C123.338 41.76 122.57 41.28 121.994 40.992C120.842 40.512 120.842 40.512 118.634 40.416C117.482 40.416 115.562 40.512 114.506 40.608C113.45 40.704 110.762 40.896 108.65 40.896C105.674 40.896 104.714 40.992 104.522 41.184C104.33 41.376 103.754 42.336 102.506 45.024C102.026 45.792 101.258 47.136 100.778 48C100.202 48.864 99.5303 49.92 99.2423 50.4C98.4743 51.744 97.7063 52.704 97.3223 52.704C97.2263 52.608 97.1303 52.512 97.0343 52.512C96.9383 52.704 96.6503 53.472 96.6503 53.664C96.6503 53.856 98.3783 53.664 100.202 53.28ZM111.242 25.248C109.514 29.184 109.418 29.472 109.61 29.472C109.706 29.472 110.378 29.088 111.05 28.608C115.85 25.536 121.514 20.448 120.938 19.872C120.746 19.68 119.402 19.776 118.346 20.064C116.042 20.64 112.97 22.464 112.01 23.904C111.722 24.288 111.434 24.864 111.242 25.248ZM114.218 60.864C113.162 61.728 108.362 63.84 106.634 64.128C106.058 64.32 105.194 64.512 104.618 64.704C104.138 64.8 103.658 64.992 103.658 64.992C103.466 64.8 103.466 64.608 103.37 64.416C103.37 64.128 103.274 64.128 101.93 64.128H99.1463C98.0903 64.032 97.8023 63.936 97.5143 63.552C97.2263 63.36 96.9383 63.072 96.6503 63.072C96.4583 62.976 95.8823 62.688 95.3063 62.304C94.7303 62.016 94.2503 61.728 94.1543 61.728C94.1543 61.728 93.8663 61.536 93.5783 61.248C93.2903 60.96 92.6183 60.48 92.1383 60.192C91.2743 59.52 91.1783 59.424 90.9863 58.56C90.9863 58.272 90.8903 57.888 90.7943 57.696C90.5063 57.024 90.7943 55.584 91.3703 54.24C91.6583 53.568 91.9463 52.896 92.0423 52.896C92.1383 52.8 92.1383 52.512 92.0423 52.032C91.5623 50.4 91.7543 48.288 92.6183 45.312C93.7703 41.28 97.1303 32.544 99.5303 27.456C99.9143 26.688 100.394 25.632 100.682 25.152L101.066 24.192L100.394 23.616C98.7623 22.08 98.3783 20.256 99.4343 18.528C99.9143 17.76 102.218 16.608 105.578 15.36C106.058 15.264 106.538 14.88 107.018 14.4C107.882 13.536 108.65 13.152 109.802 13.152C110.378 13.152 111.242 13.056 111.818 12.96C113.93 12.48 115.562 12.192 117.962 12.192C121.13 12 123.05 12.384 125.354 13.44C126.506 14.016 128.33 15.744 128.906 16.992C129.29 17.856 129.29 17.952 129.29 20.256C129.29 25.44 127.658 28.128 124.298 32.256C123.722 33.024 123.242 33.696 123.242 33.696C123.242 33.792 123.818 34.08 124.586 34.464C126.314 35.232 127.658 36.096 128.714 37.248C130.826 39.456 131.402 41.856 130.634 44.928C130.346 45.792 130.154 46.56 130.058 46.752C129.962 46.848 129.674 47.424 129.386 48C129.098 48.576 128.522 49.344 128.042 49.824C127.562 50.304 127.082 50.784 127.082 50.88C127.082 50.976 126.89 51.264 126.602 51.456C126.314 51.744 125.834 52.224 125.45 52.512C125.066 52.896 124.298 53.472 123.722 53.856C120.554 56.064 119.594 56.736 118.634 57.6C118.058 58.08 116.81 58.944 116.042 59.52C115.178 60.096 114.314 60.672 114.218 60.864ZM151.225 32.736C151.129 31.968 151.129 30.72 151.321 26.592C151.417 25.536 151.417 24.768 151.321 24.768C151.129 24.768 150.457 26.112 150.457 26.4C150.457 26.4 149.977 27.168 149.401 28.032C148.825 28.896 147.961 30.432 147.385 31.488C146.905 32.448 146.233 33.792 145.849 34.272C143.065 39.168 141.337 43.584 141.049 46.464C141.049 46.944 140.953 47.424 140.857 47.52C140.761 47.616 140.665 48.384 140.665 49.248C140.665 51.552 141.433 53.184 143.929 53.472C145.273 53.76 145.753 53.664 147.769 52.608C149.113 51.936 149.881 51.36 151.321 50.208C153.433 48.384 159.289 42.72 159.961 41.76C160.441 41.088 160.729 40.992 160.537 41.568C160.441 41.856 160.345 42.336 160.345 42.72C160.345 43.296 160.249 43.872 159.769 44.928C159.769 45.12 159.673 45.408 159.769 45.504C159.769 45.696 159.769 45.792 159.577 46.08C159.481 46.176 159.385 46.56 159.385 46.656C159.385 47.232 156.889 51.456 156.025 52.512C155.737 52.896 155.353 53.376 155.257 53.664C155.065 53.856 154.777 54.24 154.585 54.432C154.201 54.72 154.105 54.816 154.297 55.008C154.489 55.104 154.489 55.296 154.297 55.296C154.201 55.296 154.105 55.2 154.105 55.104C154.105 54.816 153.913 54.912 152.953 55.872C152.377 56.352 151.897 56.832 151.705 56.832C151.609 56.832 151.417 56.928 151.225 57.216C151.033 57.408 148.537 59.04 147.385 59.616C146.713 59.904 144.409 60.192 142.585 60.192C138.169 60.192 134.137 57.12 132.505 53.088C132.409 52.896 132.313 52.32 132.025 51.936C131.737 51.36 131.641 50.976 131.641 50.88C131.737 50.784 131.641 50.304 131.545 49.824C131.257 48.768 131.065 47.136 131.161 45.984C131.161 45.408 131.161 44.256 131.257 43.2C131.257 41.472 131.449 39.648 131.545 38.88C131.641 38.688 131.641 38.304 131.737 38.016C131.929 36.864 132.985 33.696 133.849 31.872C134.041 31.392 134.233 30.816 134.329 30.624C135.865 26.88 138.937 22.368 141.529 19.296C142.105 18.624 142.585 17.952 142.777 17.664C143.257 16.896 146.041 14.112 146.713 13.824C147.385 13.44 148.249 13.248 149.593 13.248C153.337 13.248 155.065 13.44 157.561 16.512C159.097 18.432 159.481 19.2 160.153 21.792C160.633 23.52 160.633 23.904 160.537 25.248C160.537 26.112 160.441 27.168 160.345 27.456C160.249 27.84 160.153 28.224 160.057 28.416C159.961 28.8 159.385 30.336 159.193 30.432C159.097 30.528 159.097 30.72 159.097 30.912C159.097 31.008 159.001 31.2 158.905 31.2C158.809 31.2 158.809 31.008 158.809 30.816C158.809 30.432 158.521 30.624 158.233 31.2C158.137 31.488 157.945 31.776 157.849 31.776C157.657 31.776 157.369 32.448 157.273 33.024C156.985 33.024 156.889 33.12 156.793 33.792C156.601 34.56 156.409 34.848 156.409 34.176C156.409 33.888 156.313 33.6 156.217 33.504C156.121 33.408 155.161 34.272 155.161 34.56C155.161 34.56 154.969 34.656 154.873 34.752C154.681 34.752 154.489 35.04 154.393 35.328C154.297 35.616 154.105 35.808 154.009 35.808C153.913 35.808 153.625 36 153.433 36.288C153.145 36.576 152.857 36.768 152.761 36.768C152.473 36.768 151.609 34.848 151.513 34.08C151.417 33.696 151.321 33.12 151.225 32.736ZM178.968 25.152C175.032 30.336 170.904 40.992 170.904 47.328C170.904 48.384 171 49.344 171.096 50.016C171.384 51.36 172.056 52.704 172.344 52.704C172.44 52.704 172.92 52.608 173.4 52.416C175.704 51.84 177.72 49.824 180.888 45.216C181.56 44.256 182.136 43.296 182.136 43.104C182.232 42.912 182.424 42.528 182.616 42.24C183.864 40.608 185.784 35.136 186.36 31.872C186.36 31.488 186.456 31.104 186.456 30.912C186.552 30.72 186.552 30.24 186.648 29.76C186.648 29.376 186.744 28.512 186.84 27.936C186.936 27.456 186.936 26.208 186.936 25.152C186.936 23.616 186.84 23.328 186.552 22.56C186.072 21.6 184.824 20.16 184.44 20.16C183.576 20.16 181.368 21.792 180.312 23.232C180.024 23.712 179.448 24.576 178.968 25.152ZM166.584 60.864C166.296 60.672 165.624 60.192 165.048 59.808C164.568 59.328 163.992 58.944 163.992 58.944C163.704 58.944 162.264 57.408 162.264 57.216C162.264 57.024 161.976 56.64 161.688 56.256C161.4 55.872 161.112 55.296 161.112 55.104C161.016 54.912 160.824 54.24 160.632 53.568C160.056 51.744 160.056 51.36 159.864 47.328C159.768 45.888 159.768 44.352 159.864 43.872C159.864 43.392 159.96 42.624 160.056 42.144C160.056 41.664 160.152 41.184 160.152 41.088C160.248 40.992 160.248 40.608 160.344 40.32C160.344 39.936 161.016 36.576 161.112 36.48C161.4 35.04 163.128 29.568 163.32 29.568C163.416 29.568 163.512 29.472 163.608 29.28C163.704 29.088 163.992 28.608 164.28 28.224C164.568 27.84 164.856 27.264 165.048 26.88C165.144 26.592 167.64 22.368 167.928 21.984C168.504 21.024 168.984 20.16 169.848 19.008C170.328 18.24 170.424 18.144 170.232 17.76C169.944 17.184 170.136 16.8 171.672 14.688C173.496 12.288 175.512 10.368 177.336 9.50399C177.912 9.21599 178.584 8.73599 178.872 8.54399C179.544 7.87199 179.928 7.77599 181.176 7.77599C182.424 7.77599 183.384 8.15999 184.92 9.21599C185.88 9.88799 186.936 10.368 189.528 11.232C191.544 12 192.696 12.864 193.464 14.496C193.848 15.072 194.136 15.648 194.328 15.744C194.52 16.032 195 16.704 195.768 17.856C196.248 18.624 196.92 20.448 197.016 21.408C197.112 21.696 197.208 22.176 197.304 22.464C197.496 23.232 197.592 23.616 197.688 26.304C197.784 30.144 197.784 30.24 197.496 31.68C197.304 32.448 197.208 33.024 197.208 33.888C197.112 34.944 197.016 36 196.728 37.056C196.728 37.44 196.536 38.112 196.44 38.496C196.152 39.264 195.768 40.416 195.768 40.512C195.768 40.608 195.768 40.704 195.672 40.8C195.672 40.896 195.384 41.664 195.096 42.336C194.904 43.104 194.52 43.872 194.424 44.064C194.328 44.256 193.656 45.6 192.984 47.04C191.448 50.208 190.392 52.032 189.432 53.088C189.048 53.568 188.568 54.24 188.28 54.528C185.976 57.6 181.464 60.864 177.72 61.824C176.856 62.304 174.648 62.4 173.784 62.208C173.4 62.112 172.344 62.016 171.288 61.92C169.56 61.728 167.736 61.344 166.584 60.864ZM196.632 43.584C196.536 43.584 196.536 43.68 196.728 43.776C197.016 43.968 197.016 43.968 196.92 43.776C196.92 43.68 196.728 43.584 196.632 43.584ZM195.576 27.552C195.384 27.552 195.384 27.552 195.384 27.648C195.48 27.744 195.768 27.84 195.768 27.744C195.768 27.648 195.672 27.648 195.576 27.552ZM232.178 32.544C231.602 33.984 231.506 34.368 231.602 34.368C231.602 34.368 231.698 34.08 231.89 33.792C232.37 32.832 232.562 32.352 232.37 32.352C232.274 32.352 232.178 32.448 232.178 32.544ZM238.61 34.56C238.514 34.464 238.034 35.712 238.034 36C238.034 36.096 238.226 35.808 238.418 35.424C238.514 34.944 238.61 34.656 238.61 34.56ZM238.706 20.928C238.13 21.696 238.13 22.08 238.706 21.408C238.802 21.216 238.994 21.024 238.994 20.832C238.994 20.64 238.898 20.736 238.706 20.928ZM242.066 25.152C241.682 25.92 241.778 25.92 242.258 25.248C242.45 24.96 242.546 24.672 242.45 24.576C242.45 24.576 242.258 24.768 242.066 25.152ZM242.162 15.84C242.066 16.032 242.162 16.128 242.258 16.032C242.354 16.032 242.45 15.936 242.45 15.84C242.546 15.552 242.258 15.552 242.162 15.84ZM229.778 59.616C229.298 60.384 229.106 60.48 228.242 60.672C227.474 60.96 227.186 61.152 226.034 62.208C224.498 63.744 224.018 64.032 222.77 64.128C222.578 64.128 222.386 64.128 222.29 64.128C220.562 64.128 219.026 63.264 218.066 61.536C217.586 60.768 217.01 59.328 216.818 58.656C216.818 58.56 216.626 57.888 216.434 57.216C215.666 54.528 215.666 52.992 215.474 38.88C215.474 35.616 215.378 33.408 215.282 33.6C215.282 33.792 214.994 34.464 214.706 34.944C214.514 35.52 214.13 36.48 213.842 37.152C213.65 37.728 213.074 39.264 212.498 40.416C212.018 41.664 211.442 43.104 211.25 43.776C210.962 44.352 210.674 45.216 210.482 45.6C210.29 46.08 209.138 49.056 208.85 50.016C208.754 50.208 208.754 50.208 208.658 50.112C208.562 49.92 208.466 50.112 208.274 50.592C206.258 56.16 205.106 58.944 204.626 59.424C204.434 59.616 204.146 60 204.05 60.192C203.954 60.48 203.858 60.576 203.762 60.576C203.666 60.48 203.474 60.576 203.378 60.672C203.282 60.864 203.09 60.96 202.994 60.96C202.898 60.96 202.61 61.344 202.418 61.728C202.034 62.496 201.938 62.592 201.554 62.496C200.882 62.4 200.114 62.88 199.346 63.648C198.866 64.224 198.578 64.32 198.482 64.224C198.29 63.936 198.098 64.032 197.906 64.416C197.81 64.704 197.81 64.704 197.81 64.512C197.81 64.128 197.618 64.128 197.33 64.416C197.042 64.512 196.85 64.512 196.658 64.416C196.466 64.32 196.274 64.128 196.178 63.936C196.082 63.648 195.89 63.552 195.794 63.648C195.602 63.648 195.41 63.552 195.314 63.36C194.834 62.688 195.122 60.576 195.794 57.888C198.962 47.04 203.282 33.696 205.778 27.168C206.546 25.056 207.602 22.368 207.986 21.216C208.466 20.064 208.85 19.008 208.946 18.816C209.042 18.624 209.33 17.856 209.522 17.184C209.81 16.416 210.674 14.4 211.346 12.576C212.498 9.69599 212.786 9.21599 213.458 8.54399C213.842 8.06399 214.322 7.77599 214.514 7.77599C214.706 7.77599 214.994 7.67999 215.186 7.58399C215.474 7.39199 215.762 7.39199 216.722 7.58399C217.874 7.67999 218.066 7.67999 218.45 7.48799C218.642 7.29599 219.026 7.10399 219.314 7.00799C219.506 6.91199 219.89 6.62399 220.082 6.52799C220.274 6.33599 220.562 6.33599 220.85 6.33599C223.922 6.33599 228.818 10.656 229.778 13.344C230.066 14.496 229.874 17.376 229.202 20.928C229.202 21.12 229.106 21.504 229.106 21.888C229.01 22.272 228.914 22.656 228.914 22.752C228.914 22.752 228.818 23.136 228.818 23.52C228.722 23.808 228.722 24.288 228.626 24.576C228.53 25.152 228.242 28.032 228.146 28.896C228.146 29.376 228.05 30.144 228.05 30.72C227.954 31.68 227.858 32.64 227.666 33.696C227.666 33.888 227.57 34.656 227.57 35.328C227.474 36 227.378 36.768 227.378 37.056C227.186 38.016 227.09 38.784 227.09 39.744C226.994 40.224 226.994 40.992 226.898 41.28C226.898 41.568 226.802 42.24 226.802 42.912L226.706 43.968L227.186 43.2C227.378 42.72 227.954 41.568 228.434 40.512C228.818 39.456 229.586 37.824 229.97 36.864C230.45 36 231.026 34.56 231.41 33.792C231.698 33.024 232.178 32.064 232.466 31.584C232.658 31.2 233.234 30.24 233.522 29.664C233.81 28.992 234.098 28.512 234.098 28.512C234.194 28.512 234.002 28.992 233.33 30.624C232.85 31.68 232.658 32.064 232.754 32.064C232.754 32.064 233.33 31.2 234.098 29.664C234.866 28.224 235.73 26.688 236.018 26.208C236.306 25.728 236.498 25.152 236.498 25.056C236.498 24.864 236.498 24.864 236.306 25.152C236.21 25.44 235.922 25.632 235.922 25.344C235.922 25.152 237.17 22.944 238.226 21.312C238.802 20.448 239.474 19.296 239.762 18.72C240.05 18.144 240.53 17.472 240.818 17.184C241.778 16.032 242.354 14.976 242.258 14.592C242.258 14.304 242.258 14.112 242.546 13.92C242.738 13.728 242.834 13.632 242.93 13.632C242.93 13.728 243.794 12.768 243.794 12.576C243.794 12.48 243.986 12.384 244.178 12.288C244.37 12.192 244.658 11.904 244.754 11.616C244.946 11.232 245.138 11.232 245.33 11.232C245.522 11.328 245.618 11.232 245.618 11.136C245.618 10.944 245.714 10.848 245.81 10.848C245.906 10.752 246.098 10.56 246.098 10.272C246.194 9.79199 247.154 8.35199 247.154 8.63999C247.154 8.63999 247.346 8.63999 247.73 8.54399C248.402 8.25599 248.978 8.44799 249.65 9.02399C250.034 9.31199 250.322 9.50399 250.514 9.50399C250.61 9.50399 250.898 9.69599 250.994 9.88799C251.282 10.176 252.53 10.752 252.818 10.752C254.258 10.752 254.642 16.416 254.642 17.664C254.642 19.68 254.546 20.16 254.354 21.696C254.354 22.08 254.258 22.656 254.258 23.04C254.162 23.808 253.49 27.648 253.106 29.664C252.914 30.528 252.722 31.584 252.722 31.872C252.626 32.16 252.626 32.544 252.53 32.736C252.434 33.408 252.146 35.04 251.954 36.096C251.954 36.48 251.57 38.4 251.474 38.784C251.474 39.072 251.378 39.552 251.282 39.84C251.186 40.128 251.09 40.704 251.09 41.184C250.994 41.664 250.898 42.144 250.898 42.24C250.61 43.968 250.034 47.136 249.938 47.904C249.938 48.48 249.842 49.248 249.842 49.536C249.746 49.92 249.746 51.552 249.65 53.184C249.554 56.064 249.554 56.256 249.17 56.832C248.978 57.12 248.882 57.408 248.882 57.504C248.882 57.6 248.786 57.792 248.594 57.888C248.306 57.984 248.306 58.176 248.306 58.56C248.306 58.944 248.306 59.04 248.114 58.848C247.826 58.656 247.442 58.944 246.866 59.904C246.674 60.288 246.29 60.576 246.194 60.672C245.906 60.768 245.906 60.96 245.906 61.344C245.906 61.824 245.906 61.824 245.426 61.92C244.658 62.016 243.89 61.536 243.122 60.48C241.394 58.272 240.626 56.256 240.242 52.608C240.146 51.84 240.146 46.944 240.242 45.792C240.338 43.872 240.434 43.104 240.53 42.624C240.53 42.432 240.626 41.76 240.626 41.28C240.722 40.32 240.722 40.128 241.01 38.592C241.106 38.016 241.202 37.248 241.202 36.96C241.394 36 241.49 35.328 241.586 34.944C241.874 33.408 242.546 29.088 242.546 28.992C242.45 28.896 242.354 29.088 242.162 29.376C241.97 29.76 241.778 29.856 241.778 29.76C241.778 29.568 241.97 29.088 242.258 28.608C242.546 28.224 242.738 27.648 242.738 27.552C242.642 27.36 242.45 27.744 242.066 28.608C241.586 29.568 241.394 30.048 241.49 30.432C241.49 30.912 241.49 30.912 241.298 30.624C240.914 30.048 241.106 29.568 242.066 27.552C242.642 26.496 243.026 25.44 243.026 25.344C242.93 25.248 242.642 25.632 242.354 26.304C241.298 28.416 240.722 29.856 240.818 29.952C240.818 30.048 240.722 30.336 240.626 30.624C240.434 30.912 240.338 31.2 240.338 31.296C240.338 31.488 240.05 32.16 239.666 33.024C237.362 38.4 236.786 39.936 237.074 39.936C237.17 39.936 237.17 39.744 237.17 39.648C237.17 39.264 237.458 39.072 237.554 39.36C237.65 39.552 237.65 39.552 237.554 39.552C237.458 39.456 237.362 39.648 237.362 39.936C237.362 40.224 237.362 40.608 237.17 40.8C237.074 41.088 237.074 41.472 237.074 41.856C237.17 42.24 237.17 42.528 237.074 42.624C236.978 42.624 236.978 42.816 236.978 42.912C237.074 43.2 236.786 43.872 234.962 48.768C232.85 54.432 231.41 57.504 229.778 59.616ZM238.13 37.536C237.65 38.784 237.266 39.456 237.554 38.688C237.746 38.016 238.418 36.48 238.514 36.288C238.61 36.192 238.418 36.768 238.13 37.536ZM242.162 29.952C242.258 30.048 241.49 31.776 241.394 31.776C241.298 31.776 241.298 31.776 241.298 31.68C241.298 31.488 242.066 29.856 242.162 29.952ZM238.898 22.272C238.898 22.176 238.898 22.08 238.802 22.176C238.706 22.176 238.706 22.272 238.706 22.368C238.706 22.656 238.802 22.56 238.898 22.272ZM230.258 33.408C230.258 33.504 230.258 33.6 230.354 33.6C230.354 33.6 230.45 33.504 230.45 33.312C230.45 33.312 230.354 33.312 230.258 33.408ZM284.321 18.72C284.225 18.816 284.033 18.912 284.129 19.008C284.129 19.584 283.937 19.872 283.169 20.064C281.633 20.448 279.521 21.696 278.081 22.944C277.409 23.52 275.393 24.96 273.569 26.112C273.473 26.208 273.281 26.4 273.281 26.592C273.089 27.456 271.457 33.984 270.881 35.904C269.441 41.28 266.273 48.768 265.601 48.96C265.505 49.056 265.409 49.152 265.409 49.248C265.409 49.344 266.177 49.344 267.617 49.344C268.769 49.248 270.497 49.344 271.361 49.344C272.225 49.44 273.569 49.536 274.433 49.536C275.297 49.632 275.969 49.632 276.065 49.632C276.353 49.632 276.065 50.112 275.393 50.688C275.009 50.976 274.625 51.36 274.529 51.456C274.433 51.552 274.337 51.648 274.241 51.648C274.049 51.648 273.857 51.84 273.665 52.032C273.473 52.224 273.281 52.416 273.089 52.416C272.993 52.416 272.897 52.416 272.897 52.512C272.897 52.608 272.801 52.704 272.705 52.704C272.609 52.704 272.129 53.088 271.553 53.664C270.785 54.432 270.305 54.816 269.921 54.912C269.921 54.912 269.825 54.912 269.729 55.008C269.633 55.008 269.153 55.2 268.769 55.296C268.289 55.488 267.905 55.68 267.713 55.776C267.617 55.968 267.137 56.256 266.753 56.544C265.889 57.12 264.641 58.56 264.641 58.944C264.641 59.136 264.449 59.328 263.297 60.096C262.145 61.056 259.361 61.92 257.825 61.92C257.057 61.92 254.465 60.96 253.985 60.576C253.793 60.48 253.313 60.288 253.025 60.096C252.737 60 252.065 59.328 251.393 58.656C250.049 57.312 249.377 55.968 249.089 54.144C248.993 53.568 249.377 52.224 249.665 51.936C250.049 51.552 252.353 50.976 254.369 50.784L255.905 50.592L257.153 46.848C257.825 44.832 258.881 41.952 259.361 40.512C259.841 38.976 260.609 36.768 260.993 35.52C261.473 34.176 262.337 31.584 263.009 29.568C263.681 27.648 264.257 25.92 264.161 25.824C264.161 25.728 263.969 25.728 263.777 25.728C263.393 25.728 262.529 25.344 262.049 24.96C261.857 24.768 261.281 24.48 260.801 24.192C259.745 23.808 258.689 22.848 258.209 21.984C258.113 21.696 257.633 21.024 257.345 20.64C256.481 19.584 256.193 19.008 256.193 18.336C256.193 17.664 256.577 16.992 257.153 16.8C257.249 16.704 258.497 16.512 259.745 16.416C261.089 16.32 262.913 16.128 263.777 15.936C264.641 15.84 265.985 15.648 266.753 15.456C267.521 15.36 268.385 15.168 268.769 15.072C270.401 14.592 275.873 14.208 277.985 14.208C278.753 14.112 282.593 14.4 283.841 14.592C284.321 14.688 285.569 14.976 286.529 15.072C287.489 15.264 288.353 15.456 288.449 15.552C288.545 15.648 288.449 15.84 288.065 16.128C287.777 16.32 287.297 16.704 287.009 16.992C286.721 17.28 286.337 17.472 286.241 17.472C286.145 17.472 286.049 17.568 286.049 17.664C286.049 17.76 285.953 17.76 285.857 17.76C285.761 17.76 285.473 18.048 285.185 18.24C284.897 18.528 284.513 18.72 284.321 18.72ZM295.131 32.736C295.035 31.968 295.035 30.72 295.227 26.592C295.323 25.536 295.323 24.768 295.227 24.768C295.035 24.768 294.363 26.112 294.363 26.4C294.363 26.4 293.883 27.168 293.307 28.032C292.731 28.896 291.867 30.432 291.291 31.488C290.811 32.448 290.139 33.792 289.755 34.272C286.971 39.168 285.243 43.584 284.955 46.464C284.955 46.944 284.859 47.424 284.763 47.52C284.667 47.616 284.571 48.384 284.571 49.248C284.571 51.552 285.339 53.184 287.835 53.472C289.179 53.76 289.659 53.664 291.675 52.608C293.019 51.936 293.787 51.36 295.227 50.208C297.339 48.384 303.195 42.72 303.867 41.76C304.347 41.088 304.635 40.992 304.443 41.568C304.347 41.856 304.251 42.336 304.251 42.72C304.251 43.296 304.155 43.872 303.675 44.928C303.675 45.12 303.579 45.408 303.675 45.504C303.675 45.696 303.675 45.792 303.483 46.08C303.387 46.176 303.291 46.56 303.291 46.656C303.291 47.232 300.795 51.456 299.931 52.512C299.643 52.896 299.259 53.376 299.163 53.664C298.971 53.856 298.683 54.24 298.491 54.432C298.107 54.72 298.011 54.816 298.203 55.008C298.395 55.104 298.395 55.296 298.203 55.296C298.107 55.296 298.011 55.2 298.011 55.104C298.011 54.816 297.819 54.912 296.859 55.872C296.283 56.352 295.803 56.832 295.611 56.832C295.515 56.832 295.323 56.928 295.131 57.216C294.939 57.408 292.443 59.04 291.291 59.616C290.619 59.904 288.315 60.192 286.491 60.192C282.075 60.192 278.043 57.12 276.411 53.088C276.315 52.896 276.219 52.32 275.931 51.936C275.643 51.36 275.547 50.976 275.547 50.88C275.643 50.784 275.547 50.304 275.451 49.824C275.163 48.768 274.971 47.136 275.067 45.984C275.067 45.408 275.067 44.256 275.163 43.2C275.163 41.472 275.355 39.648 275.451 38.88C275.547 38.688 275.547 38.304 275.643 38.016C275.835 36.864 276.891 33.696 277.755 31.872C277.947 31.392 278.139 30.816 278.235 30.624C279.771 26.88 282.843 22.368 285.435 19.296C286.011 18.624 286.491 17.952 286.683 17.664C287.163 16.896 289.947 14.112 290.619 13.824C291.291 13.44 292.155 13.248 293.499 13.248C297.243 13.248 298.971 13.44 301.467 16.512C303.003 18.432 303.387 19.2 304.059 21.792C304.539 23.52 304.539 23.904 304.443 25.248C304.443 26.112 304.347 27.168 304.251 27.456C304.155 27.84 304.059 28.224 303.963 28.416C303.867 28.8 303.291 30.336 303.099 30.432C303.003 30.528 303.003 30.72 303.003 30.912C303.003 31.008 302.907 31.2 302.811 31.2C302.715 31.2 302.715 31.008 302.715 30.816C302.715 30.432 302.427 30.624 302.139 31.2C302.043 31.488 301.851 31.776 301.755 31.776C301.563 31.776 301.275 32.448 301.179 33.024C300.891 33.024 300.795 33.12 300.699 33.792C300.507 34.56 300.315 34.848 300.315 34.176C300.315 33.888 300.219 33.6 300.123 33.504C300.027 33.408 299.067 34.272 299.067 34.56C299.067 34.56 298.875 34.656 298.779 34.752C298.587 34.752 298.395 35.04 298.299 35.328C298.203 35.616 298.011 35.808 297.915 35.808C297.819 35.808 297.531 36 297.339 36.288C297.051 36.576 296.763 36.768 296.667 36.768C296.379 36.768 295.515 34.848 295.419 34.08C295.323 33.696 295.227 33.12 295.131 32.736ZM344.674 69.696C344.674 69.6 344.674 69.6 344.77 69.6C344.77 69.792 344.674 69.792 344.674 69.696ZM344.77 69.6C344.866 69.504 344.962 69.504 345.058 69.408C344.962 69.504 344.962 69.6 344.866 69.6H344.77ZM382.69 49.824H382.594C382.594 49.728 382.594 49.632 382.594 49.536C382.594 49.632 382.69 49.632 382.69 49.824ZM345.25 69.024C345.25 69.024 344.674 69.12 343.906 69.12C340.738 69.408 339.202 69.312 338.338 68.832C338.05 68.64 337.57 68.352 337.282 68.16C336.514 67.776 335.362 66.528 335.074 65.952C334.882 65.376 335.17 64.32 335.554 64.32C335.842 64.32 336.13 63.936 335.938 63.744C335.938 63.648 335.746 63.552 335.554 63.552C335.074 63.552 334.978 63.456 335.17 63.072C335.362 62.88 335.362 62.784 335.266 62.688C334.978 62.496 335.17 62.4 335.746 62.208C336.514 62.016 337.762 62.112 339.874 62.304C341.602 62.496 341.89 62.496 343.81 62.208C345.442 61.92 346.018 61.728 346.21 61.536C346.402 61.44 346.69 61.248 346.978 61.248C347.554 61.248 349.762 60.576 351.97 59.616C352.93 59.136 353.794 58.848 353.89 58.848C353.986 58.848 354.658 58.56 355.426 58.272C356.194 57.984 358.21 57.312 359.938 56.736C368.482 53.76 373.474 51.648 373.474 51.168C373.474 50.976 372.13 50.016 370.882 49.44C370.498 49.152 369.346 48.672 368.866 48.576C368.098 48.192 367.234 47.904 366.85 47.808C365.794 47.808 364.354 47.424 363.394 47.136C362.05 46.752 355.522 45.888 352.93 45.6C347.362 45.216 339.682 42.432 336.61 37.632C335.17 35.136 334.69 31.584 335.746 30.336C336.034 29.952 336.226 29.088 336.418 28.032C336.61 26.304 338.914 22.752 339.778 22.56C340.546 22.368 341.89 21.6 342.37 21.024C342.658 20.736 343.234 20.16 343.618 19.68C344.002 19.296 344.386 18.72 344.386 18.528C344.578 17.376 352.066 13.152 353.314 12.576C354.754 11.904 359.842 9.40799 360.898 8.83199C361.378 8.54399 362.626 7.96799 363.586 7.67999C364.45 7.39199 365.506 6.91199 365.794 6.71999C366.082 6.52799 366.466 6.43199 366.658 6.43199C366.85 6.52799 367.618 6.33599 368.29 6.04799C370.402 5.37599 372.898 4.79999 374.434 4.51199C376.066 4.31999 378.562 4.51199 380.386 4.89599C382.498 5.56799 383.554 7.00799 384.13 9.11999C384.418 10.656 384.61 11.328 384.994 12.576C385.282 13.536 385.378 13.728 385.186 14.4C384.226 17.664 381.538 18.144 378.658 18.528C377.314 18.624 375.682 18.912 375.106 19.008C373.474 19.392 372.034 19.776 371.65 19.872C371.458 19.968 370.882 20.16 370.402 20.256C366.178 21.312 359.938 23.904 356.866 25.728C356.386 26.112 355.81 26.4 355.81 26.4C355.618 26.4 352.738 28.32 351.874 29.088C351.49 29.376 351.01 29.76 350.818 29.856C350.434 30.144 347.65 32.832 347.65 33.024C347.65 33.408 347.938 33.504 348.994 33.984C350.434 34.656 353.122 35.424 357.154 36.48C359.074 36.864 361.282 37.44 362.05 37.632C362.818 37.824 363.682 38.112 363.874 38.112C367.138 39.072 375.97 41.664 378.37 44.064C378.658 44.448 378.946 44.64 379.042 44.64C379.138 44.64 379.714 45.12 380.194 45.792C381.154 46.752 382.21 48.48 382.21 49.056C382.21 49.248 382.306 49.248 382.402 49.248C382.498 49.152 382.594 49.248 382.594 49.44V49.536H382.498C382.402 49.536 382.402 49.632 382.402 49.824C382.402 49.92 382.402 50.016 382.498 50.016C382.594 50.016 382.594 49.92 382.594 49.824C382.69 50.016 382.69 50.112 382.786 50.208C382.882 50.592 382.882 50.88 382.786 50.976C382.69 51.072 382.594 51.168 382.594 51.264C382.498 52.032 382.306 52.608 382.018 53.088C381.73 53.664 381.73 53.76 381.922 53.76C382.018 53.76 382.402 52.992 382.69 52.128C382.786 51.744 382.786 51.744 382.786 52.032C382.786 52.224 382.69 52.704 382.402 53.184C382.018 54.24 382.21 54.336 382.69 53.376L382.978 52.704L382.882 53.376C382.786 53.664 382.69 54.24 382.498 54.624C382.306 54.816 382.21 55.008 382.21 55.104C382.114 54.912 381.922 55.104 381.922 55.488C381.922 55.584 381.922 55.68 381.922 55.68C381.826 55.776 381.73 55.968 381.538 56.16C381.25 56.544 380.962 56.928 381.058 56.928C381.058 57.024 380.962 57.216 380.77 57.408C380.482 57.792 380.386 57.888 380.578 57.984C380.77 58.08 380.674 58.272 380.098 58.752C379.714 59.136 379.426 59.52 379.426 59.616C379.426 59.712 379.234 59.904 379.138 60C378.562 60.384 377.026 61.248 376.546 61.344C376.354 61.44 375.97 61.632 375.778 61.824C375.586 62.112 375.106 62.4 374.722 62.592C374.242 62.88 373.762 63.168 373.666 63.264C372.706 64.128 369.826 65.184 366.37 66.144C363.298 67.008 360.226 67.872 359.554 68.064C359.17 68.256 358.594 68.352 358.114 68.352C357.73 68.448 357.154 68.544 356.866 68.64C356.578 68.736 356.002 68.832 355.714 68.832C355.33 68.928 354.946 69.024 354.85 69.024C354.562 69.12 353.986 69.12 350.53 69.312C349.666 69.312 348.802 69.408 348.61 69.504C348.418 69.504 348.13 69.504 348.034 69.408C347.842 69.216 347.458 69.216 346.594 69.312C346.114 69.408 345.538 69.408 345.058 69.408C345.154 69.312 345.25 69.216 345.25 69.024ZM346.786 18.432C346.786 18.528 346.594 18.528 346.594 18.528C346.306 18.528 346.402 18.432 346.69 18.336C346.786 18.336 346.882 18.336 346.786 18.432ZM382.498 50.208C382.594 50.208 382.69 50.304 382.69 50.4C382.69 50.4 382.594 50.496 382.498 50.496C382.402 50.496 382.402 50.496 382.402 50.4C382.402 50.304 382.402 50.208 382.498 50.208ZM381.922 55.68C382.114 55.488 382.21 55.392 382.21 55.392C382.21 55.296 382.21 55.296 382.21 55.2C382.306 55.296 382.21 55.488 382.114 55.584C382.018 55.68 382.018 55.68 381.922 55.68ZM426.977 12.096C427.361 12.192 426.881 12.384 425.921 12.48C425.537 12.576 424.961 12.768 424.769 12.864C424.481 13.056 424.289 13.152 424.193 13.152C424.001 13.152 424.001 13.44 424.289 13.536C424.673 13.728 424.673 14.112 424.289 14.304C424.097 14.4 423.425 14.592 422.849 14.688C421.697 14.784 421.313 14.976 421.313 15.456C421.313 15.744 421.217 15.744 417.473 16.608C415.937 16.992 414.305 17.376 412.769 17.856C411.329 18.336 410.945 18.528 410.753 18.912C410.657 19.104 410.273 19.392 409.697 19.584C408.161 20.16 407.969 20.352 407.105 23.04C405.569 27.552 403.649 33.312 403.169 34.944C402.881 35.808 402.209 37.728 401.825 39.168C401.345 40.608 400.865 42.432 400.673 43.2C399.233 48.096 398.369 50.592 398.177 50.784C397.889 51.072 397.409 52.128 397.025 53.568C396.641 54.912 396.257 55.776 395.873 56.832C395.681 57.216 395.489 57.6 395.489 57.888C395.393 58.08 395.009 58.848 394.721 59.52C394.337 60.288 393.857 61.152 393.761 61.44C393.569 61.728 393.473 62.016 393.377 62.016C393.281 62.016 393.185 62.208 393.185 62.496C393.089 62.784 392.993 63.072 392.897 63.168C392.705 63.552 392.129 65.28 392.129 65.568C392.129 65.76 392.033 65.856 391.841 65.76C391.553 65.664 391.073 66.048 391.073 66.336C390.977 66.72 390.305 66.624 389.537 66.24C388.865 65.952 387.809 64.704 387.137 63.552C386.849 62.88 386.753 62.688 386.753 60.672C386.753 58.56 386.849 56.928 387.137 55.776C387.233 55.488 387.329 54.912 387.425 54.528C387.521 53.568 388.577 48 389.153 45.408C389.441 44.16 389.729 42.912 389.729 42.72C389.825 42.432 390.113 41.184 390.497 39.936C390.785 38.592 391.169 37.344 391.169 36.96C391.361 36.384 392.417 32.544 393.089 30.144C393.569 28.8 393.857 27.84 394.817 25.248C395.201 24.288 395.393 23.52 395.393 23.52C395.393 23.52 393.665 23.808 391.457 24.384C388.001 25.152 386.849 25.344 384.641 25.344H382.433L380.993 24.576C379.457 23.808 378.401 22.944 377.441 21.408C376.385 19.872 376.193 18.624 376.577 16.608C376.673 16.032 377.921 14.592 378.401 14.592C378.593 14.592 380.801 14.496 383.393 14.4C390.113 14.208 395.585 13.824 398.753 13.248C399.233 13.152 399.425 12.864 399.425 12C399.425 11.424 400.193 10.368 400.577 10.368C400.769 10.368 401.057 10.272 401.345 10.176C401.729 9.98399 402.401 9.88799 403.073 9.88799C404.129 9.88799 404.513 9.98399 405.281 10.752C405.569 11.04 405.857 11.328 406.049 11.328C406.145 11.328 406.433 11.52 406.625 11.712L407.009 12.192L409.793 11.904C411.233 11.712 413.825 11.712 416.705 11.712C421.313 11.712 426.305 11.904 426.977 12.096ZM448.742 16.704L449.03 16.416C449.222 16.224 449.414 16.032 449.414 16.128C449.51 16.224 449.51 17.76 449.318 18.336C449.222 18.72 449.126 19.296 449.126 19.584C449.03 19.872 448.934 20.448 448.838 20.832C448.742 21.12 448.646 22.08 448.646 22.848C448.55 23.616 448.454 24.384 448.358 24.672C448.262 24.864 448.166 25.536 448.07 26.112C447.974 26.688 447.686 27.84 447.398 28.704C446.726 30.912 446.438 32.064 446.342 33.408C446.246 33.888 445.958 34.848 445.766 35.616C445.478 36.384 445.286 37.152 445.19 37.44C445.094 38.016 443.942 41.088 443.846 41.28C443.75 41.376 443.654 41.664 443.558 42.048C443.174 43.008 440.102 49.248 439.718 49.728C439.526 49.92 439.43 50.112 439.334 50.304C439.142 50.976 436.55 54.336 435.398 55.488C432.614 58.272 429.35 61.344 425.222 61.344C424.358 61.44 423.014 61.44 422.15 61.536C421.19 61.44 420.518 61.44 420.038 61.248C418.982 60.96 417.35 60.096 416.39 59.232C416.102 59.04 415.622 58.656 415.43 58.368C413.414 56.832 411.782 52.416 411.302 49.824C411.11 48.672 410.918 45.216 411.014 44.064C411.11 42.528 411.398 39.84 411.494 39.456C411.494 39.36 411.59 38.976 411.59 38.688C411.782 37.824 412.166 36.096 412.454 34.752C412.646 34.08 412.934 33.024 413.126 32.448C413.894 29.568 418.118 16.224 420.71 14.976C420.902 14.88 421.286 14.688 421.382 14.592C421.478 14.4 421.766 14.304 421.958 14.304C422.246 14.304 422.438 14.208 422.534 14.112C422.822 13.824 425.126 13.92 425.702 14.208C426.758 14.784 428.294 16.608 428.774 17.856C428.87 18.048 428.87 19.68 428.87 21.408C428.87 26.112 428.102 28.416 426.374 32.928C424.55 37.632 423.686 40.608 423.398 42.336C423.302 43.296 423.398 47.136 423.494 48C423.782 50.208 424.166 51.264 424.838 51.264C425.318 51.264 425.99 50.784 426.95 49.92C430.982 46.176 433.766 41.184 436.262 36.288C436.838 35.04 438.758 30.624 440.102 27.36C442.022 22.464 443.174 19.776 444.518 16.704C445.958 13.632 446.15 13.248 446.246 13.248C446.342 13.248 446.438 13.152 446.63 13.056C446.822 12.864 446.918 12.864 446.918 12.96C446.918 13.056 446.918 13.344 446.918 13.536C446.918 13.824 447.11 13.824 447.686 13.728C447.974 13.632 448.07 13.824 448.166 14.304C448.262 14.592 448.358 15.072 448.358 15.264C448.358 15.456 448.358 15.936 448.55 16.224L448.742 16.704ZM470 35.52C470.096 35.232 470.768 34.176 471.344 33.024C472.496 30.816 472.784 30.144 473.456 27.936C473.936 26.592 474.512 23.52 474.416 23.328C474.416 23.328 474.32 22.848 474.32 22.272C473.84 17.952 471.056 15.936 466.928 15.936C464.912 15.936 464.624 16.032 464.912 16.512C465.2 16.992 465.104 19.392 464.816 20.928C464.624 21.6 464.432 22.656 464.336 23.328C464.24 23.616 463.472 27.168 463.376 27.36C463.376 27.552 463.28 27.84 463.28 27.936C463.28 28.032 463.184 28.32 463.184 28.704C462.992 29.568 462.704 30.72 462.128 32.352C461.744 33.504 461.168 35.52 460.88 36.768C460.784 36.96 460.208 39.072 459.632 40.896C459.536 41.376 459.344 42.048 459.248 42.24C459.248 42.432 459.056 42.816 458.96 43.2C458.864 43.584 458.576 44.448 458.48 45.12C457.712 47.616 457.04 49.824 456.848 50.4C456.656 50.88 456.848 50.784 458 49.728C461.648 46.656 467.888 39.744 470 35.52ZM475.76 45.888C474.992 47.04 474.032 48.096 473.072 49.056C471.056 52.128 465.872 57.216 462.608 59.136C462.224 59.328 461.84 59.52 461.744 59.616C461.36 59.904 459.824 60.384 459.44 60.192C459.248 60.096 459.056 60.096 459.056 60.192C458.96 60.192 458.768 60.288 458.576 60.288C458.096 60.384 457.136 60.672 456.944 60.768C456.848 60.768 456.752 60.768 456.752 60.576C456.752 60.384 456.464 60.48 455.408 60.96C454.352 61.44 453.584 61.632 453.104 61.632C452.912 61.632 452.72 61.536 452.72 61.44C452.624 61.248 452.432 61.152 452.048 61.152C451.664 61.152 451.28 61.152 450.992 61.056C450.704 60.864 450.416 60.864 449.936 61.056C449.456 61.152 449.264 61.152 449.264 61.056C449.168 60.96 448.976 60.864 448.88 60.96C448.688 60.96 448.304 61.056 447.92 61.152C447.632 61.152 447.248 61.248 447.056 61.344C446.576 61.632 445.904 61.536 445.424 61.056C445.232 60.864 444.752 60.48 444.464 60.192C443.6 59.616 443.504 59.424 443.024 58.464C442.736 57.696 442.64 57.504 442.736 56.448C442.928 54.24 443.792 51.168 445.712 46.272C446.192 44.928 446.96 42.912 447.344 41.856C447.728 40.8 448.304 39.36 448.496 38.592C448.784 37.92 449.552 35.616 450.32 33.6C452.432 27.552 453.2 25.248 454.352 22.464C454.928 20.928 455.408 19.68 455.408 19.584C455.408 19.296 454.832 19.488 453.872 20.256C453.104 20.832 452.912 21.024 453.008 21.312C453.008 21.696 452.912 21.888 452.72 21.504C452.72 21.408 452.624 21.408 452.528 21.408C452.528 21.504 452.528 21.696 452.624 21.888C452.816 22.464 452.72 22.464 452.144 22.176C451.568 21.792 451.376 21.792 451.376 22.08C451.376 22.272 451.376 22.368 451.28 22.368C451.184 22.368 451.184 22.272 451.184 22.08C451.28 21.984 451.184 21.888 451.088 21.888C450.992 21.888 450.992 21.984 450.992 22.464C451.088 22.944 451.088 22.944 450.896 22.848C450.704 22.656 450.608 22.656 450.32 22.944C450.224 23.136 449.936 23.232 449.84 23.232C449.744 23.136 449.552 23.232 449.36 23.328C449.168 23.616 448.976 23.616 448.592 23.424C448.112 23.232 447.92 23.04 447.248 21.888C446.672 20.832 446.672 20.448 447.344 19.296C449.168 16.32 455.216 12.096 459.92 10.56C462.416 9.79199 465.008 9.40799 467.408 9.40799C472.976 9.40799 477.488 11.712 480.752 16.32C482 18.24 483.344 22.08 483.152 23.328C483.056 23.52 483.152 24 483.248 24.288C483.536 25.152 483.44 27.552 482.96 30.336C482.192 35.04 480.272 39.552 477.488 43.488C477.104 43.968 476.336 45.12 475.76 45.888ZM513.352 18.72C513.256 18.816 513.064 18.912 513.16 19.008C513.16 19.584 512.968 19.872 512.2 20.064C510.664 20.448 508.552 21.696 507.112 22.944C506.44 23.52 504.424 24.96 502.6 26.112C502.504 26.208 502.312 26.4 502.312 26.592C502.12 27.456 500.488 33.984 499.912 35.904C498.472 41.28 495.304 48.768 494.632 48.96C494.536 49.056 494.44 49.152 494.44 49.248C494.44 49.344 495.208 49.344 496.648 49.344C497.8 49.248 499.528 49.344 500.392 49.344C501.256 49.44 502.6 49.536 503.464 49.536C504.328 49.632 505 49.632 505.096 49.632C505.384 49.632 505.096 50.112 504.424 50.688C504.04 50.976 503.656 51.36 503.56 51.456C503.464 51.552 503.368 51.648 503.272 51.648C503.08 51.648 502.888 51.84 502.696 52.032C502.504 52.224 502.312 52.416 502.12 52.416C502.024 52.416 501.928 52.416 501.928 52.512C501.928 52.608 501.832 52.704 501.736 52.704C501.64 52.704 501.16 53.088 500.584 53.664C499.816 54.432 499.336 54.816 498.952 54.912C498.952 54.912 498.856 54.912 498.76 55.008C498.664 55.008 498.184 55.2 497.8 55.296C497.32 55.488 496.936 55.68 496.744 55.776C496.648 55.968 496.168 56.256 495.784 56.544C494.92 57.12 493.672 58.56 493.672 58.944C493.672 59.136 493.48 59.328 492.328 60.096C491.176 61.056 488.392 61.92 486.856 61.92C486.088 61.92 483.496 60.96 483.016 60.576C482.824 60.48 482.344 60.288 482.056 60.096C481.768 60 481.096 59.328 480.424 58.656C479.08 57.312 478.408 55.968 478.12 54.144C478.024 53.568 478.408 52.224 478.696 51.936C479.08 51.552 481.384 50.976 483.4 50.784L484.936 50.592L486.184 46.848C486.856 44.832 487.912 41.952 488.392 40.512C488.872 38.976 489.64 36.768 490.024 35.52C490.504 34.176 491.368 31.584 492.04 29.568C492.712 27.648 493.288 25.92 493.192 25.824C493.192 25.728 493 25.728 492.808 25.728C492.424 25.728 491.56 25.344 491.08 24.96C490.888 24.768 490.312 24.48 489.832 24.192C488.776 23.808 487.72 22.848 487.24 21.984C487.144 21.696 486.664 21.024 486.376 20.64C485.512 19.584 485.224 19.008 485.224 18.336C485.224 17.664 485.608 16.992 486.184 16.8C486.28 16.704 487.528 16.512 488.776 16.416C490.12 16.32 491.944 16.128 492.808 15.936C493.672 15.84 495.016 15.648 495.784 15.456C496.552 15.36 497.416 15.168 497.8 15.072C499.432 14.592 504.904 14.208 507.016 14.208C507.784 14.112 511.624 14.4 512.872 14.592C513.352 14.688 514.6 14.976 515.56 15.072C516.52 15.264 517.384 15.456 517.48 15.552C517.576 15.648 517.48 15.84 517.096 16.128C516.808 16.32 516.328 16.704 516.04 16.992C515.752 17.28 515.368 17.472 515.272 17.472C515.176 17.472 515.08 17.568 515.08 17.664C515.08 17.76 514.984 17.76 514.888 17.76C514.792 17.76 514.504 18.048 514.216 18.24C513.928 18.528 513.544 18.72 513.352 18.72ZM527.906 25.152C523.97 30.336 519.842 40.992 519.842 47.328C519.842 48.384 519.938 49.344 520.034 50.016C520.322 51.36 520.994 52.704 521.282 52.704C521.378 52.704 521.858 52.608 522.338 52.416C524.642 51.84 526.658 49.824 529.826 45.216C530.498 44.256 531.074 43.296 531.074 43.104C531.17 42.912 531.362 42.528 531.554 42.24C532.802 40.608 534.722 35.136 535.298 31.872C535.298 31.488 535.394 31.104 535.394 30.912C535.49 30.72 535.49 30.24 535.586 29.76C535.586 29.376 535.682 28.512 535.778 27.936C535.874 27.456 535.874 26.208 535.874 25.152C535.874 23.616 535.778 23.328 535.49 22.56C535.01 21.6 533.762 20.16 533.378 20.16C532.514 20.16 530.306 21.792 529.25 23.232C528.962 23.712 528.386 24.576 527.906 25.152ZM515.522 60.864C515.234 60.672 514.562 60.192 513.986 59.808C513.506 59.328 512.93 58.944 512.93 58.944C512.642 58.944 511.202 57.408 511.202 57.216C511.202 57.024 510.914 56.64 510.626 56.256C510.338 55.872 510.05 55.296 510.05 55.104C509.954 54.912 509.762 54.24 509.57 53.568C508.994 51.744 508.994 51.36 508.802 47.328C508.706 45.888 508.706 44.352 508.802 43.872C508.802 43.392 508.898 42.624 508.994 42.144C508.994 41.664 509.09 41.184 509.09 41.088C509.186 40.992 509.186 40.608 509.282 40.32C509.282 39.936 509.954 36.576 510.05 36.48C510.338 35.04 512.066 29.568 512.258 29.568C512.354 29.568 512.45 29.472 512.546 29.28C512.642 29.088 512.93 28.608 513.218 28.224C513.506 27.84 513.794 27.264 513.986 26.88C514.082 26.592 516.578 22.368 516.866 21.984C517.442 21.024 517.922 20.16 518.786 19.008C519.266 18.24 519.362 18.144 519.17 17.76C518.882 17.184 519.074 16.8 520.61 14.688C522.434 12.288 524.45 10.368 526.274 9.50399C526.85 9.21599 527.522 8.73599 527.81 8.54399C528.482 7.87199 528.866 7.77599 530.114 7.77599C531.362 7.77599 532.322 8.15999 533.858 9.21599C534.818 9.88799 535.874 10.368 538.466 11.232C540.482 12 541.634 12.864 542.402 14.496C542.786 15.072 543.074 15.648 543.266 15.744C543.458 16.032 543.938 16.704 544.706 17.856C545.186 18.624 545.858 20.448 545.954 21.408C546.05 21.696 546.146 22.176 546.242 22.464C546.434 23.232 546.53 23.616 546.626 26.304C546.722 30.144 546.722 30.24 546.434 31.68C546.242 32.448 546.146 33.024 546.146 33.888C546.05 34.944 545.954 36 545.666 37.056C545.666 37.44 545.474 38.112 545.378 38.496C545.09 39.264 544.706 40.416 544.706 40.512C544.706 40.608 544.706 40.704 544.61 40.8C544.61 40.896 544.322 41.664 544.034 42.336C543.842 43.104 543.458 43.872 543.362 44.064C543.266 44.256 542.594 45.6 541.922 47.04C540.386 50.208 539.33 52.032 538.37 53.088C537.986 53.568 537.506 54.24 537.218 54.528C534.914 57.6 530.402 60.864 526.658 61.824C525.794 62.304 523.586 62.4 522.722 62.208C522.338 62.112 521.282 62.016 520.226 61.92C518.498 61.728 516.674 61.344 515.522 60.864ZM545.57 43.584C545.474 43.584 545.474 43.68 545.666 43.776C545.954 43.968 545.954 43.968 545.858 43.776C545.858 43.68 545.666 43.584 545.57 43.584ZM544.514 27.552C544.322 27.552 544.322 27.552 544.322 27.648C544.418 27.744 544.706 27.84 544.706 27.744C544.706 27.648 544.61 27.648 544.514 27.552Z" fill="url(#paint0_linear_23_32)"/>
<defs>
<linearGradient id="paint0_linear_23_32" x1="22.4347" y1="15.712" x2="509.289" y2="60.5141" gradientUnits="userSpaceOnUse">
<stop stop-color="#5237BF"/>
<stop offset="1" stop-color="#DD4CD1"/>
</linearGradient>
</defs>
</svg>
